<svg xmlns="http://www.w3.org/2000/svg" width="24" height="24" fill="none"><path fill="#252525" fill-rule="evenodd" d="M8 22c-1.1 0-2-.95-2-2.111L5 9.333c0-1.16.9-2.11 2-2.11h10c1.1 0 2 .95 2 2.11L18 19.89C18 21.05 17.1 22 16 22H8Zm7.5-17.944H19c.55 0 1 .475 1 1.055s-.45 1.056-1 1.056H5c-.55 0-1-.475-1-1.056 0-.58.45-1.055 1-1.055h3.5l.71-1.75c.18-.19.44-.306.7-.306h4.18c.26 0 .52.116.7.306l.71 1.75Zm-6.137 8.292a1 1 0 0 1 1-1h.182a1 1 0 0 1 1 1v4.91a1 1 0 0 1-1 1h-.181a1 1 0 0 1-1-1v-4.91Zm2.91 0a1 1 0 0 1 1-1h.181a1 1 0 0 1 1 1v4.91a1 1 0 0 1-1 1h-.182a1 1 0 0 1-1-1v-4.91Z" clip-rule="evenodd"/></svg>