<svg xmlns="http://www.w3.org/2000/svg" width="24" height="24" fill="none"><path fill="#252525" d="M6 19.778C6 21 6.9 22 8 22h8c1.1 0 2-1 2-2.222l1-11.111c0-1.223-.9-2.223-2-2.223H7c-1.1 0-2 1-2 2.223l1 11.11ZM8 8.667h8c.55 0 1 .5 1 1.11l-1 8.89c0 .61-.45 1.11-1 1.11H9c-.55 0-1-.5-1-1.11l-1-8.89c0-.61.45-1.11 1-1.11Zm7.5-5.556-.71-1.789a.96.96 0 0 0-.7-.322H9.91a.96.96 0 0 0-.7.322l-.71 1.79H5c-.55 0-1 .5-1 1.11 0 .611.45 1.111 1 1.111h14c.55 0 1-.5 1-1.11 0-.612-.45-1.112-1-1.112h-3.5Z"/></svg>