<svg xmlns="http://www.w3.org/2000/svg" width="24" height="24" fill="none"><path fill="#252525" d="M6 19.889C6 21.05 6.9 22 8 22h8c1.1 0 2-.95 2-2.111l1-10.556c0-1.16-.9-2.11-2-2.11H7c-1.1 0-2 .95-2 2.11L6 19.89Zm3.17-8.265a.96.96 0 0 1 1.41 0L12 13.123l1.42-1.5a.96.96 0 0 1 1.41 0c.39.413.39 1.078 0 1.49l-1.42 1.498 1.42 1.499c.39.412.39 1.077 0 1.488a.96.96 0 0 1-1.41 0L12 16.1l-1.42 1.5a.96.96 0 0 1-1.41 0 1.093 1.093 0 0 1 0-1.489l1.42-1.499-1.42-1.499c-.39-.4-.39-1.076 0-1.488Zm6.33-7.568-.71-1.75a.983.983 0 0 0-.7-.306H9.91c-.26 0-.52.116-.7.306l-.71 1.75H5c-.55 0-1 .475-1 1.055s.45 1.056 1 1.056h14c.55 0 1-.475 1-1.056 0-.58-.45-1.055-1-1.055h-3.5Z"/></svg>