<svg xmlns="http://www.w3.org/2000/svg" width="24" height="24" fill="none"><path fill="#252525" fill-rule="evenodd" d="M8 22c-1.1 0-2-.95-2-2.111L5 9.333c0-1.16.9-2.11 2-2.11h10c1.1 0 2 .95 2 2.11L18 19.89c0 1.16-.9 2.11-2 2.11H8Zm7.5-17.944H19c.55 0 1 .475 1 1.055s-.45 1.056-1 1.056H5c-.55 0-1-.475-1-1.056 0-.58.45-1.055 1-1.055h3.5l.71-1.75c.18-.19.44-.306.7-.306h4.18c.26 0 .52.116.7.306l.71 1.75ZM8.027 14.693l2.6 2.676c.156.16.41.16.566 0l4.6-4.735a.42.42 0 0 0 0-.583l-.566-.582a.392.392 0 0 0-.566 0L10.91 15.33l-1.752-1.803a.392.392 0 0 0-.566 0l-.565.582a.42.42 0 0 0 0 .583Z" clip-rule="evenodd"/></svg>