<svg xmlns="http://www.w3.org/2000/svg" width="24" height="24" fill="none"><path fill="#252525" d="M14.794 7c-.55 0-1-.45-1-1s.45-1 1-1h5v5c0 .55-.45 1-1 1s-1-.45-1-1V8.41L14 12.203a.996.996 0 1 1-1.41-1.41L16.384 7h-1.59Z"/><path fill="#252525" fill-rule="evenodd" d="M10 2a3 3 0 0 0-3 3v10a3 3 0 0 0 3 3h10a3 3 0 0 0 3-3V5a3 3 0 0 0-3-3H10Zm10 2H10a1 1 0 0 0-1 1v10a1 1 0 0 0 1 1h10a1 1 0 0 0 1-1V5a1 1 0 0 0-1-1Z" clip-rule="evenodd"/><path fill="#252525" d="M4 9.5a.5.5 0 0 1 .5-.5 1 1 0 0 0 0-2A2.5 2.5 0 0 0 2 9.5v9a4 4 0 0 0 4 4h9.5A2.5 2.5 0 0 0 18 20a1 1 0 1 0-2 0 .5.5 0 0 1-.5.5H6a2 2 0 0 1-2-2v-9Z"/></svg>