<svg xmlns="http://www.w3.org/2000/svg" width="24" height="24" fill="none"><path fill="#252525" d="M13.5 7c0-.83-.67-1.5-1.5-1.5s-1.5.67-1.5 1.5.67 1.5 1.5 1.5 1.5-.67 1.5-1.5ZM9 10.99a3.6 3.6 0 0 0 6 0c-.015-.995-2.005-1.54-3-1.54-1 0-2.985.545-3 1.54Z"/><path fill="#252525" fill-rule="evenodd" d="M12 2C8.13 2 5 5.215 5 9.19c0 4.284 4.42 10.19 6.24 12.44a.976.976 0 0 0 1.53 0C14.58 19.38 19 13.474 19 9.19 19 5.216 15.87 2 12 2ZM7 9c0-2.76 2.24-5 5-5s5 2.24 5 5-2.24 5-5 5-5-2.24-5-5Z" clip-rule="evenodd"/></svg>