<svg xmlns="http://www.w3.org/2000/svg" width="23" height="23" fill="none"><path fill="#252525" fill-rule="evenodd" d="M16.555 20.544a1.75 1.75 0 0 1-2.475 0l-3.314-3.314a.25.25 0 0 0-.123-.067l-4.555-1.012a1.75 1.75 0 0 1-1.312-1.263L2.058 4.56a1.75 1.75 0 0 1 .455-1.683l.364-.364a1.75 1.75 0 0 1 1.791-.423l9.746 3.248a1.75 1.75 0 0 1 1.155 1.281l1.021 4.598a.25.25 0 0 0 .067.122l3.314 3.314a1.75 1.75 0 0 1 0 2.475l-3.416 3.416Zm-1.414-1.06a.25.25 0 0 0 .353 0l3.417-3.417a.25.25 0 0 0 0-.353l-2.761-2.761-3.77 3.77 2.76 2.76ZM11.21 15.77a1.76 1.76 0 0 0-.241-.072l-4.555-1.012a.25.25 0 0 1-.188-.18l-2.59-9.84L7.73 8.759a2.415 2.415 0 1 0 1.06-1.061l-3.98-3.98 9.13 3.044a.25.25 0 0 1 .165.182l1.022 4.598c.018.082.042.163.072.241l-3.988 3.988Z" clip-rule="evenodd"/></svg>