<svg xmlns="http://www.w3.org/2000/svg" width="24" height="24" fill="none"><path fill="#252525" stroke="#252525" d="M6.83 18.5h-.354l-.118.334a2.501 2.501 0 1 1-1.96-3.303l.327.053.176-.281 5.137-8.22.183-.293-.21-.275a2.5 2.5 0 1 1 3.978 0l-.21.275.184.293 5.137 8.22.175.28.327-.052a2.5 2.5 0 1 1-1.96 3.302l-.118-.333H6.83Zm-.472-1.333.118.333h11.048l.118-.333c.11-.311.28-.594.496-.835l.25-.28-.199-.319-5.052-8.083-.191-.307-.351.086a2.507 2.507 0 0 1-1.19 0l-.35-.086-.192.307-5.052 8.083-.2.32.251.28a2.5 2.5 0 0 1 .496.834Z"/></svg>