<svg xmlns="http://www.w3.org/2000/svg" width="24" height="24" fill="none"><path fill="#252525" d="M7.556 8.667c.314 0 .578-.107.792-.32.212-.213.319-.477.319-.791 0-.315-.107-.58-.32-.793a1.078 1.078 0 0 0-.791-.319c-.315 0-.58.107-.793.32a1.078 1.078 0 0 0-.319.792c0 .314.107.578.32.79.213.214.477.32.792.32Zm0 4.444c.314 0 .578-.107.792-.32.212-.213.319-.476.319-.791 0-.315-.107-.579-.32-.792a1.078 1.078 0 0 0-.791-.32c-.315 0-.58.107-.793.32a1.078 1.078 0 0 0-.319.792c0 .315.107.579.32.791.213.213.477.32.792.32Zm0 4.445c.314 0 .578-.107.792-.32.212-.213.319-.477.319-.792 0-.314-.107-.578-.32-.792a1.078 1.078 0 0 0-.791-.319c-.315 0-.58.107-.793.32a1.078 1.078 0 0 0-.319.791c0 .315.107.579.32.792.213.213.477.32.792.32ZM4.222 22a2.143 2.143 0 0 1-1.57-.652A2.143 2.143 0 0 1 2 19.778V4.222c0-.61.217-1.134.652-1.57A2.143 2.143 0 0 1 4.222 2h12.222L22 7.556v12.222c0 .61-.217 1.134-.652 1.57a2.143 2.143 0 0 1-1.57.652H4.222Zm0-2.222h15.556V8.667h-3.334c-.314 0-.578-.107-.79-.32a1.072 1.072 0 0 1-.32-.791V4.222H4.221v15.556Zm0-11.111v11.11V4.223v4.445-4.445 4.445Z"/></svg>