<svg xmlns="http://www.w3.org/2000/svg" width="24" height="24" fill="none"><path fill="#252525" d="M19.778 13.111v5.556c0 .61-.5 1.11-1.111 1.11H5.333c-.61 0-1.11-.5-1.11-1.11V13.11c0-.611-.5-1.111-1.112-1.111C2.5 12 2 12.5 2 13.111v6.667C2 21 3 22 4.222 22h15.556C21 22 22 21 22 19.778V13.11C22 12.5 21.5 12 20.889 12s-1.111.5-1.111 1.111Z"/><path fill="#252525" d="m8.789 7.88 2.089-2.088v9.633c0 .611.5 1.111 1.111 1.111s1.111-.5 1.111-1.111V5.792l2.1 2.089a1.107 1.107 0 1 0 1.567-1.567l-3.99-3.989a1.107 1.107 0 0 0-1.566 0L7.222 6.314a1.107 1.107 0 0 0 0 1.567 1.107 1.107 0 0 0 1.567 0Z"/></svg>